<svg width="2093" height="376" xmlns="http://www.w3.org/2000/svg" xmlns:xlink="http://www.w3.org/1999/xlink" xml:space="preserve" overflow="hidden"><defs><clipPath id="clip0"><rect x="1112" y="1199" width="2093" height="376"/></clipPath></defs><g clip-path="url(#clip0)" transform="translate(-1112 -1199)"><path d="M1114.5 1292.4C1114.5 1279.2 1125.2 1268.5 1138.4 1268.5L1489.6 1268.5C1502.8 1268.5 1513.5 1279.2 1513.5 1292.4L1513.5 1483.6C1513.5 1496.8 1502.8 1507.5 1489.6 1507.5L1138.4 1507.5C1125.2 1507.5 1114.5 1496.8 1114.5 1483.6Z" stroke="#FFFFFF" stroke-width="4.58333" stroke-miterlimit="8" fill="#FFC000" fill-rule="evenodd"/><text fill="#FFFFFF" font-family="Yu Gothic,Yu Gothic_MSFontService,sans-serif" font-weight="400" font-size="60" transform="matrix(1 0 0 1 1208.45 1359)">Merged <tspan font-size="60" x="39.0499" y="89">code</tspan></text><path d="M1553 1357.8 1595.5 1357.8 1595.5 1338 1638 1387.5 1595.5 1437 1595.5 1417.2 1553 1417.2Z" fill="#FFC000" fill-rule="evenodd"/><path d="M1673.5 1292.4C1673.5 1279.2 1684.2 1268.5 1697.4 1268.5L2048.6 1268.5C2061.8 1268.5 2072.5 1279.2 2072.5 1292.4L2072.5 1483.6C2072.5 1496.8 2061.8 1507.5 2048.6 1507.5L1697.4 1507.5C1684.2 1507.5 1673.5 1496.8 1673.5 1483.6Z" stroke="#FFFFFF" stroke-width="4.58333" stroke-miterlimit="8" fill="#67EF21" fill-rule="evenodd"/><text fill="#FFFFFF" font-family="Yu Gothic,Yu Gothic_MSFontService,sans-serif" font-weight="400" font-size="60" transform="matrix(1 0 0 1 1811.15 1404)">Test</text><path d="M2112 1357.8 2154 1357.8 2154 1338 2196 1387.5 2154 1437 2154 1417.2 2112 1417.2Z" fill="#30E845" fill-rule="evenodd"/><path d="M2231.5 1292.4C2231.5 1279.2 2242.2 1268.5 2255.4 1268.5L2606.6 1268.5C2619.8 1268.5 2630.5 1279.2 2630.5 1292.4L2630.5 1483.6C2630.5 1496.8 2619.8 1507.5 2606.6 1507.5L2255.4 1507.5C2242.2 1507.5 2231.5 1496.8 2231.5 1483.6Z" stroke="#FFFFFF" stroke-width="4.58333" stroke-miterlimit="8" fill="#3FE19B" fill-rule="evenodd"/><text fill="#FFFFFF" font-family="Yu Gothic,Yu Gothic_MSFontService,sans-serif" font-weight="400" font-size="60" transform="matrix(1 0 0 1 2360.45 1404)">Build</text><path d="M2670 1357.8 2712.5 1357.8 2712.5 1338 2755 1387.5 2712.5 1437 2712.5 1417.2 2670 1417.2Z" fill="#5B9BD5" fill-rule="evenodd"/><path d="M2790.5 1292.4C2790.5 1279.2 2801.2 1268.5 2814.4 1268.5L3165.6 1268.5C3178.8 1268.5 3189.5 1279.2 3189.5 1292.4L3189.5 1483.6C3189.5 1496.8 3178.8 1507.5 3165.6 1507.5L2814.4 1507.5C2801.2 1507.5 2790.5 1496.8 2790.5 1483.6Z" stroke="#FFFFFF" stroke-width="4.58333" stroke-miterlimit="8" fill="#5B9BD5" fill-rule="evenodd"/><text fill="#FFFFFF" font-family="Yu Gothic,Yu Gothic_MSFontService,sans-serif" font-weight="400" font-size="60" transform="matrix(1 0 0 1 2824.22 1404)">Deployment</text></g></svg>