<svg width="892" height="1081" xmlns="http://www.w3.org/2000/svg" xmlns:xlink="http://www.w3.org/1999/xlink" xml:space="preserve" overflow="hidden"><defs><clipPath id="clip0"><rect x="733" y="258" width="892" height="1081"/></clipPath></defs><g clip-path="url(#clip0)" transform="translate(-733 -258)"><path d="M777.5 287C777.5 272.364 789.364 260.5 804 260.5L1556 260.5C1570.64 260.5 1582.5 272.364 1582.5 287L1582.5 499C1582.5 513.636 1570.64 525.5 1556 525.5L804 525.5C789.364 525.5 777.5 513.636 777.5 499Z" stroke="#FFFFFF" stroke-width="4.58333" stroke-miterlimit="8" fill="#4472C4" fill-rule="evenodd" fill-opacity="0.901961"/><text fill="#FFFFFF" font-family="Yu Gothic,Yu Gothic_MSFontService,sans-serif" font-weight="400" font-size="64" transform="matrix(1 0 0 1 979.844 411)">Issue created</text><path d="M1215.2 541 1215.2 591 1239 591 1179.5 641 1120 591 1143.8 591 1143.8 541Z" fill="#406DBB" fill-rule="evenodd"/><path d="M777.5 684C777.5 669.364 789.364 657.5 804 657.5L1556 657.5C1570.64 657.5 1582.5 669.364 1582.5 684L1582.5 896C1582.5 910.636 1570.64 922.5 1556 922.5L804 922.5C789.364 922.5 777.5 910.636 777.5 896Z" stroke="#FFFFFF" stroke-width="4.58333" stroke-miterlimit="8" fill="#4472C4" fill-rule="evenodd" fill-opacity="0.701961"/><text fill="#FFFFFF" font-family="Yu Gothic,Yu Gothic_MSFontService,sans-serif" font-weight="400" font-size="64" transform="matrix(1 0 0 1 899.131 808)">The issue is sorted</text><path d="M1215.2 939 1215.2 988.5 1239 988.5 1179.5 1038 1120 988.5 1143.8 988.5 1143.8 939Z" fill="#C0C9E4" fill-rule="evenodd"/><path d="M777.5 1082C777.5 1067.36 789.364 1055.5 804 1055.5L1556 1055.5C1570.64 1055.5 1582.5 1067.36 1582.5 1082L1582.5 1294C1582.5 1308.64 1570.64 1320.5 1556 1320.5L804 1320.5C789.364 1320.5 777.5 1308.64 777.5 1294Z" stroke="#FFFFFF" stroke-width="4.58333" stroke-miterlimit="8" fill="#4472C4" fill-rule="evenodd" fill-opacity="0.501961"/><text fill="#FFFFFF" font-family="Yu Gothic,Yu Gothic_MSFontService,sans-serif" font-weight="400" font-size="64" transform="matrix(1 0 0 1 828.628 1157)">The issue automatically <tspan font-size="64" x="-18.2875" y="96">assigned to a contributor</tspan></text></g></svg>