<svg width="1428" height="1237" xmlns="http://www.w3.org/2000/svg" xmlns:xlink="http://www.w3.org/1999/xlink" xml:space="preserve" overflow="hidden"><defs><clipPath id="clip0"><rect x="733" y="246" width="1428" height="1237"/></clipPath></defs><g clip-path="url(#clip0)" transform="translate(-733 -246)"><path d="M855.896 473.5 855.896 584.802 942.518 584.802 942.518 568.5 1010.5 616 942.518 663.5 942.518 647.198 793.5 647.198 793.5 473.5Z" stroke="#FFFFFF" stroke-width="4.58333" stroke-miterlimit="8" fill="#C4D5EB" fill-rule="evenodd"/><path d="M756.5 286.841C756.5 266.218 773.218 249.5 793.841 249.5L1039.16 249.5C1059.78 249.5 1076.5 266.218 1076.5 286.841L1076.5 436.159C1076.5 456.782 1059.78 473.5 1039.16 473.5L793.841 473.5C773.218 473.5 756.5 456.782 756.5 436.159Z" stroke="#FFFFFF" stroke-width="4.58333" stroke-miterlimit="8" fill="#5B9BD5" fill-rule="evenodd"/><text fill="#FFFFFF" font-family="Yu Gothic,Yu Gothic_MSFontService,sans-serif" font-weight="400" font-size="55" transform="matrix(1 0 0 1 817.859 335)">Commit <tspan font-size="55" x="37.5375" y="83">code</tspan></text><path d="M1121.9 725.5 1121.9 836.802 1207.52 836.802 1207.52 820.5 1275.5 868 1207.52 915.5 1207.52 899.198 1059.5 899.198 1059.5 725.5Z" stroke="#FFFFFF" stroke-width="4.58333" stroke-miterlimit="8" fill="#D1ECEB" fill-rule="evenodd"/><path d="M1022.5 538.841C1022.5 518.218 1039.22 501.5 1059.84 501.5L1305.16 501.5C1325.78 501.5 1342.5 518.218 1342.5 538.841L1342.5 688.159C1342.5 708.782 1325.78 725.5 1305.16 725.5L1059.84 725.5C1039.22 725.5 1022.5 708.782 1022.5 688.159Z" stroke="#FFFFFF" stroke-width="4.58333" stroke-miterlimit="8" fill="#54CCCD" fill-rule="evenodd"/><text fill="#FFFFFF" font-family="Yu Gothic,Yu Gothic_MSFontService,sans-serif" font-weight="400" font-size="55" transform="matrix(1 0 0 1 1125.41 628)">Test</text><path d="M1386.9 976.5 1386.9 1087.8 1473.52 1087.8 1473.52 1071.5 1541.5 1119 1473.52 1166.5 1473.52 1150.2 1324.5 1150.2 1324.5 976.5Z" stroke="#FFFFFF" stroke-width="4.58333" stroke-miterlimit="8" fill="#DEEEE3" fill-rule="evenodd"/><path d="M1287.5 789.841C1287.5 769.218 1304.22 752.5 1324.84 752.5L1570.16 752.5C1590.78 752.5 1607.5 769.218 1607.5 789.841L1607.5 939.159C1607.5 959.782 1590.78 976.5 1570.16 976.5L1324.84 976.5C1304.22 976.5 1287.5 959.782 1287.5 939.159Z" stroke="#FFFFFF" stroke-width="4.58333" stroke-miterlimit="8" fill="#4DC58D" fill-rule="evenodd"/><text fill="#FFFFFF" font-family="Yu Gothic,Yu Gothic_MSFontService,sans-serif" font-weight="400" font-size="55" transform="matrix(1 0 0 1 1382.17 880)">Build</text><path d="M1652.9 1228.5 1652.9 1339.8 1738.52 1339.8 1738.52 1323.5 1806.5 1371 1738.52 1418.5 1738.52 1402.2 1590.5 1402.2 1590.5 1228.5Z" stroke="#FFFFFF" stroke-width="4.58333" stroke-miterlimit="8" fill="#EBF1E9" fill-rule="evenodd"/><path d="M1553.5 1041.84C1553.5 1021.22 1570.22 1004.5 1590.84 1004.5L1836.16 1004.5C1856.78 1004.5 1873.5 1021.22 1873.5 1041.84L1873.5 1191.16C1873.5 1211.78 1856.78 1228.5 1836.16 1228.5L1590.84 1228.5C1570.22 1228.5 1553.5 1211.78 1553.5 1191.16Z" stroke="#FFFFFF" stroke-width="4.58333" stroke-miterlimit="8" fill="#48BB4F" fill-rule="evenodd"/><text fill="#FFFFFF" font-family="Yu Gothic,Yu Gothic_MSFontService,sans-serif" font-weight="400" font-size="55" transform="matrix(1 0 0 1 1648.48 1132)">Push</text><path d="M1818.5 1293.84C1818.5 1273.22 1835.22 1256.5 1855.84 1256.5L2101.16 1256.5C2121.78 1256.5 2138.5 1273.22 2138.5 1293.84L2138.5 1443.16C2138.5 1463.78 2121.78 1480.5 2101.16 1480.5L1855.84 1480.5C1835.22 1480.5 1818.5 1463.78 1818.5 1443.16Z" stroke="#FFFFFF" stroke-width="4.58333" stroke-miterlimit="8" fill="#70AD47" fill-rule="evenodd"/><text fill="#FFFFFF" font-family="Yu Gothic,Yu Gothic_MSFontService,sans-serif" font-weight="400" font-size="55" transform="matrix(1 0 0 1 1890.08 1383)">Deploy</text></g></svg>