<svg width="2093" height="1070" xmlns="http://www.w3.org/2000/svg" xmlns:xlink="http://www.w3.org/1999/xlink" xml:space="preserve" overflow="hidden"><defs><clipPath id="clip0"><rect x="1112" y="505" width="2093" height="1070"/></clipPath></defs><g clip-path="url(#clip0)" transform="translate(-1112 -505)"><path d="M1114.5 944.5C1114.5 931.245 1125.24 920.5 1138.5 920.5L1489.5 920.5C1502.75 920.5 1513.5 931.245 1513.5 944.5L1513.5 1136.5C1513.5 1149.75 1502.75 1160.5 1489.5 1160.5L1138.5 1160.5C1125.24 1160.5 1114.5 1149.75 1114.5 1136.5Z" stroke="#FFFFFF" stroke-width="4.58333" stroke-miterlimit="8" fill="#FFC000" fill-rule="evenodd"/><text fill="#FFFFFF" font-family="Yu Gothic,Yu Gothic_MSFontService,sans-serif" font-weight="400" font-size="60" transform="matrix(1 0 0 1 1208.45 1012)">Merged <tspan font-size="60" x="39.0499" y="89">code</tspan></text><path d="M1553 1010.8 1595.5 1010.8 1595.5 991 1638 1040.5 1595.5 1090 1595.5 1070.2 1553 1070.2Z" fill="#FFC000" fill-rule="evenodd"/><path d="M1673.5 944.5C1673.5 931.245 1684.24 920.5 1697.5 920.5L2048.5 920.5C2061.75 920.5 2072.5 931.245 2072.5 944.5L2072.5 1136.5C2072.5 1149.75 2061.75 1160.5 2048.5 1160.5L1697.5 1160.5C1684.24 1160.5 1673.5 1149.75 1673.5 1136.5Z" stroke="#FFFFFF" stroke-width="4.58333" stroke-miterlimit="8" fill="#67EF21" fill-rule="evenodd"/><text fill="#FFFFFF" font-family="Yu Gothic,Yu Gothic_MSFontService,sans-serif" font-weight="400" font-size="60" transform="matrix(1 0 0 1 1811.15 1057)">Test</text><path d="M2112 1010.8 2154 1010.8 2154 991 2196 1040.5 2154 1090 2154 1070.2 2112 1070.2Z" fill="#30E845" fill-rule="evenodd"/><path d="M2231.5 944.5C2231.5 931.245 2242.25 920.5 2255.5 920.5L2606.5 920.5C2619.76 920.5 2630.5 931.245 2630.5 944.5L2630.5 1136.5C2630.5 1149.76 2619.75 1160.5 2606.5 1160.5L2255.5 1160.5C2242.25 1160.5 2231.5 1149.75 2231.5 1136.5Z" stroke="#FFFFFF" stroke-width="4.58333" stroke-miterlimit="8" fill="#3FE19B" fill-rule="evenodd"/><text fill="#FFFFFF" font-family="Yu Gothic,Yu Gothic_MSFontService,sans-serif" font-weight="400" font-size="60" transform="matrix(1 0 0 1 2360.45 1057)">Build</text><path d="M2670 1010.8 2712.5 1010.8 2712.5 991 2755 1040.5 2712.5 1090 2712.5 1070.2 2670 1070.2Z" fill="#5B9BD5" fill-rule="evenodd"/><path d="M2790.5 944.5C2790.5 931.245 2801.25 920.5 2814.5 920.5L3165.5 920.5C3178.75 920.5 3189.5 931.245 3189.5 944.5L3189.5 1136.5C3189.5 1149.75 3178.75 1160.5 3165.5 1160.5L2814.5 1160.5C2801.25 1160.5 2790.5 1149.75 2790.5 1136.5Z" stroke="#FFFFFF" stroke-width="4.58333" stroke-miterlimit="8" fill="#5B9BD5" fill-rule="evenodd"/><text fill="#FFFFFF" font-family="Yu Gothic,Yu Gothic_MSFontService,sans-serif" font-weight="400" font-size="60" transform="matrix(1 0 0 1 2824.22 1057)">Deployment</text></g></svg>